<svg width="26" height="27" viewBox="0 0 26 27" fill="none" xmlns="http://www.w3.org/2000/svg">
<path d="M4.22186 5.25454C4.22186 5.25454 2.86035 5.49907 2.86035 6.64875V15.0139C2.86035 19.4874 9.42646 24.4657 11.6584 25.9445C12.1032 26.2419 12.6787 26.2419 13.1234 25.9445C15.3554 24.4657 21.9215 19.4874 21.9215 15.0139V6.64875C21.9215 5.49907 20.56 5.25454 20.56 5.25454L13.1811 2.92959C12.6665 2.76745 12.1154 2.76745 11.6008 2.92959L4.22186 5.25454Z" fill="#F0F0F0"/>
<path d="M5.87139 4.26114C5.89408 4.25692 5.9165 4.25134 5.93852 4.2444L13.3175 1.91943C13.7209 1.79232 14.153 1.79232 14.5565 1.91943L21.9354 4.2444C21.9574 4.25134 21.9798 4.25692 22.0025 4.26114C22.0034 4.26131 22.0044 4.26147 22.0053 4.26165L22.0049 4.26157L22.0042 4.26144L22.0031 4.26124L22.0059 4.26182C22.0105 4.26278 22.0195 4.26471 22.0321 4.26774C22.0575 4.27383 22.0969 4.28417 22.1455 4.29975C22.2449 4.33156 22.3716 4.38175 22.4933 4.45499C22.7361 4.60112 22.893 4.78996 22.893 5.08273V13.4479C22.893 14.4251 22.5326 15.4715 21.9116 16.5397C21.2926 17.6046 20.4356 18.655 19.4948 19.6291C17.6126 21.578 15.4492 23.1663 14.355 23.8913L14.3529 23.8927C14.1002 24.0617 13.7737 24.0617 13.521 23.8927L13.5189 23.8913C12.4247 23.1663 10.2613 21.578 8.37912 19.6291C7.43837 18.655 6.58128 17.6046 5.9623 16.5397C5.3413 15.4715 4.98096 14.4251 4.98096 13.4479V5.08273C4.98096 4.78996 5.13776 4.60112 5.38057 4.45499C5.50228 4.38175 5.62907 4.33156 5.72837 4.29975C5.77699 4.28417 5.8164 4.27383 5.84178 4.26774C5.85441 4.26471 5.86336 4.26278 5.86802 4.26182L5.87139 4.26114ZM5.86901 4.26157L5.86896 4.26158C5.86899 4.26157 5.86903 4.26157 5.86906 4.26157L5.86901 4.26157Z" stroke="#6F7882" stroke-linecap="round" stroke-linejoin="round"/>
</svg>
